<svg xmlns="http://www.w3.org/2000/svg" viewBox="0 0 500 500"><g id="freepik--background-complete--inject-370"><rect x="40.9" y="47.27" width="85.46" height="141.45" style="fill:#e0e0e0"></rect><rect x="38.06" y="47.27" width="85.46" height="141.45" style="fill:#ebebeb"></rect><rect x="41.7" y="50.14" width="78.18" height="135.72" style="fill:#fff"></rect><rect x="56.58" y="67.77" width="48.07" height="100.45" style="fill:#ebebeb"></rect><path d="M56.58,132.67c-.11-9.38,8.33-18.54,17.62-19.85,4.43-.62,9.14.26,13.28-1.44,7.39-3,9.74-12.85,17.18-15.76l.34,72.6H56.58Z" style="fill:#e0e0e0"></path><polygon points="464.67 54.44 464.67 122.27 367.25 122.27 363.74 54.91 464.67 54.44" style="fill:#e0e0e0"></polygon><rect x="378.85" y="39.81" width="67.21" height="97.42" transform="translate(323.93 500.97) rotate(-90)" style="fill:#fff"></rect><path d="M461.63,122.59H363.28V54.45h98.35Zm-97.42-.93H460.7V55.38H364.21Z" style="fill:#e0e0e0"></path><rect x="374.29" y="63.26" width="76.32" height="50.51" style="fill:#fff"></rect><path d="M450.61,63.26l-.37,0h-1.09l-4.19,0-15.73.06-54.94.1.23-.22c0,15.44,0,32.54,0,50.51h0l-.24-.24,76.32,0-.19.19c0-15.37.08-28,.1-36.75,0-4.38,0-7.81.05-10.16,0-1.16,0-2,0-2.67s0-.93,0-.93,0,.3,0,.89,0,1.49,0,2.63c0,2.34,0,5.76.05,10.12,0,8.81.06,21.45.1,36.87v.2h-.19l-76.32,0h-.24v-.25h0c0-18,0-35.07,0-50.51V63h.22l55.09.11,15.67.06,4.15,0h1.41Z" style="fill:#e0e0e0"></path><path d="M363.74,54.72a8.59,8.59,0,0,1,1.68,1.09c1,.72,2.35,1.74,3.82,2.91S372,61,372.9,61.84a7.4,7.4,0,0,1,1.39,1.42,67.22,67.22,0,0,1-5.35-4.16A54.82,54.82,0,0,1,363.74,54.72Z" style="fill:#e0e0e0"></path><path d="M461.16,54.91A45.74,45.74,0,0,1,456,59.28a46.35,46.35,0,0,1-5.43,4,48.43,48.43,0,0,1,5.13-4.36A47.67,47.67,0,0,1,461.16,54.91Z" style="fill:#e0e0e0"></path><path d="M461.09,122.13l-10.87-8.8" style="fill:#fff"></path><path d="M450.22,113.33a51.13,51.13,0,0,1,5.59,4.22,52.38,52.38,0,0,1,5.28,4.58,48.73,48.73,0,0,1-5.59-4.21A53,53,0,0,1,450.22,113.33Z" style="fill:#e0e0e0"></path><path d="M363.74,122.12a47.39,47.39,0,0,1,5.08-4.31,44.45,44.45,0,0,1,5.37-3.94,47.39,47.39,0,0,1-5.08,4.31A44.45,44.45,0,0,1,363.74,122.12Z" style="fill:#e0e0e0"></path><rect x="405.34" y="63.45" width="16.91" height="48.02" transform="translate(326.34 501.26) rotate(-90)" style="fill:#e0e0e0"></rect><path d="M384.6,341.35a35.42,35.42,0,0,0-15.13-5.21c-2.47-.25-5.18-.18-7.16,1.32a1.49,1.49,0,0,0-.74,1.31,1.61,1.61,0,0,0,.7.89c6.16,4.7,15.47,5.29,22.33,1.69" style="fill:#e0e0e0"></path><path d="M384.21,340.92a73.36,73.36,0,0,1-9.77-8.59A24.83,24.83,0,0,1,368.31,321a4.61,4.61,0,0,1,.48-3.79c7.79,6.08,13.91,14,15.42,23.71" style="fill:#e0e0e0"></path><path d="M384.52,341.29a35.23,35.23,0,0,1,.18-12.83,17.34,17.34,0,0,1,6.83-10.58c1.35,3.14.77,6.77-.18,10.06a48.46,48.46,0,0,1-6.78,14.26" style="fill:#e0e0e0"></path><path d="M392.15,355c-4.63.56-8.67,3-12.13,6.14A22.93,22.93,0,0,0,373.08,373c4.55-.28,8.4-3.49,11.2-7.08s4.74-7.54,7.81-10.9" style="fill:#e0e0e0"></path><path d="M393.81,357.16a29.91,29.91,0,0,1,3.46-28.3c2.64,9.39,1.67,20-3.46,28.3" style="fill:#e0e0e0"></path><path d="M403.9,369.18a21.61,21.61,0,0,0-20.69,11.91,1.59,1.59,0,0,0-.14,1.62,1.51,1.51,0,0,0,1.37.4c4.08-.26,7.69-2.71,10.68-5.51s5.58-6,8.87-8.43" style="fill:#e0e0e0"></path><path d="M403.58,368.52a38.52,38.52,0,0,1-.39-21.52c.76-2.77,2-5.69,4.6-7a.88.88,0,0,1,.7-.12.89.89,0,0,1,.44.51,13,13,0,0,1,1.09,6.18,39,39,0,0,1-1,6.25c-.81,3.82-1.24,7.93-3.33,11.22a22.61,22.61,0,0,0-1.34,2.47c-.39.83-.39,1.13-.76,1.79" style="fill:#e0e0e0"></path><path d="M430.28,372.5c-2-7.52.12-16.65,4.87-22.82.35-.45.81-.94,1.38-.89.87.08,1.1,1.25,1.06,2.12a41.19,41.19,0,0,1-7.31,21.59" style="fill:#e0e0e0"></path><path d="M432.69,374.15c9.15,2.38,19.63.06,27.24-5.54a22,22,0,0,0-14.75-1.81c-4.92,1.12-9.42,3.33-12.49,7.35" style="fill:#e0e0e0"></path><path d="M434.72,369.14c5.12-8.35,14.94-13.8,24.72-14.3-1.12,4-4.39,7.07-8.08,8.94s-7.81,2.68-11.87,3.47c-1.58.31-3.74.65-4.77,1.89" style="fill:#e0e0e0"></path><path d="M430.79,344.82A71.47,71.47,0,0,0,434,330.34c.38-4.93-.32-10.08-2.88-14.32-4.78,9.26-5.27,20.07-.42,29.3" style="fill:#e0e0e0"></path><path d="M446.9,336.68c5.59-10.17,17-18.29,28.55-19.43-4.45,11.1-16.6,19.67-28.55,19.43" style="fill:#e0e0e0"></path><path d="M443.38,338.67c8.34,1.27,15.45,6.6,23.25,9.83a10.44,10.44,0,0,0,5.25,1,4.12,4.12,0,0,0,2.58-7.28,11.21,11.21,0,0,0-3.82-2.31c-8.49-3.54-17.6-3.63-26.54-1.48" style="fill:#e0e0e0"></path><path d="M438.55,344.52c1.89.54,2.53,1.52,4,2.8a43.49,43.49,0,0,0,17.63,9.05c.67.17,1.56.24,1.89-.37s-.08-1.18-.46-1.65A24.3,24.3,0,0,0,451,347.12c-4.07-1.51-7.59-3.34-12.45-2.95" style="fill:#e0e0e0"></path><path d="M433.1,309.18a33.35,33.35,0,0,0,25.58,8.71,1.74,1.74,0,0,0,1.16-.42c.65-.7-.12-1.78-.87-2.37-7.52-5.86-16.63-8.29-25.87-5.92" style="fill:#e0e0e0"></path><path d="M439.56,306.82a35.69,35.69,0,0,1,31.92-5.27,25.33,25.33,0,0,1-15.21,6.68,48.34,48.34,0,0,1-16.71-1.41" style="fill:#e0e0e0"></path><path d="M437,290.58c-.73-7.51-.26-13.43-.78-21,0-.6-.17-1.33-.73-1.55-.79-.3-1.44.67-1.7,1.47a24,24,0,0,0,3.2,20.88" style="fill:#e0e0e0"></path><path d="M436.45,291.41a44.19,44.19,0,0,0,12.44-12.09c2.45-3.36,4.52-7.38,4-11.51a11.93,11.93,0,0,0-9,4.46,25,25,0,0,0-4.58,9.2c-1,3.3-1.69,6.69-2.86,9.94" style="fill:#e0e0e0"></path><path d="M448.67,288a100.43,100.43,0,0,0,30.6-18c-3.66-1.47-7.84-.59-11.5.89-8.34,3.37-15.17,9.06-19.26,17.07" style="fill:#e0e0e0"></path><path d="M439.89,295.52c5.65.61,11.39,1,17,.08s10.71-3.11,15.86-5.27a1.88,1.88,0,0,0,1.08-.82,1.24,1.24,0,0,0-.39-1.36,3.29,3.29,0,0,0-1.35-.63c-5.6-1.57-11.64-.83-17.14,1a79.06,79.06,0,0,0-15.05,7" style="fill:#e0e0e0"></path><path d="M407.64,309.44c-3.86-7.78-3.61-16.86-.28-24.87,2.34,3.57,2.63,8.11,2.2,12.36s-1.72,8.63-1.8,12.9" style="fill:#e0e0e0"></path><path d="M392.24,301.68a34.65,34.65,0,0,0-25.78,11c4.8.75,9.75-.49,14.12-2.62a71.29,71.29,0,0,0,12.09-8.1" style="fill:#e0e0e0"></path><path d="M381.89,298.21c-4.71-.38-9.24-1-13.76.43a16.46,16.46,0,0,0-10.49,8.89,24.81,24.81,0,0,0,12.9-2.44,73,73,0,0,0,11.35-6.88" style="fill:#e0e0e0"></path><path d="M397.21,298.37c-4.23-2.77-8.58-5.6-13.51-6.75s-10.64-.3-14.08,3.42c4,2.34,8.83,2.62,13.46,2.61s10.3,0,14.66,1.49" style="fill:#e0e0e0"></path><path d="M397.24,298.6c-7.24-7.11-10-19.88-7.07-29.6a45.08,45.08,0,0,1,7.07,29.6" style="fill:#e0e0e0"></path><path d="M417.15,278.45c1.36-3.17,2.32-6.5,3.55-9.73a27.86,27.86,0,0,1,5.06-9,13.32,13.32,0,0,1,9-4.64,36.1,36.1,0,0,1-17.4,23.41" style="fill:#e0e0e0"></path><path d="M413.54,282.65c-2.26-3.11-4.87-7.33-7.93-9.65s-7.05-3.73-10.79-2.84a25.14,25.14,0,0,0,18.72,12.49" style="fill:#e0e0e0"></path><path d="M414.26,278.71a53.69,53.69,0,0,1-3.57-11.56,18.07,18.07,0,0,1,1.81-11.76c4,7.51,5.26,15.57,2,23.41" style="fill:#e0e0e0"></path><path d="M417.18,255.39c2.25-7.45,9.07-12.93,16.43-15.45a6.22,6.22,0,0,1,2.88-.43,2.51,2.51,0,0,1,2.13,1.77c.27,1.27-.78,2.41-1.76,3.25a56.07,56.07,0,0,1-19.68,10.86" style="fill:#e0e0e0"></path><path d="M417.26,249.3c.29-4.8.59-9.67,2.15-14.22s4.57-8.82,8.95-10.81c.75,4.85-1.39,9.67-4,13.85s-5.69,8.11-7.24,12.76" style="fill:#e0e0e0"></path><path d="M417.15,252.6c-1.86-5.42-2.06-12.32-5.31-17-2.27-3.31-5.91-5.56-7.86-9.06a13.77,13.77,0,0,0,.45,10.28,29.8,29.8,0,0,0,6,8.61c2.4,2.56,4.46,4.5,6.7,7.21" style="fill:#e0e0e0"></path><path d="M417.18,412.42c-.14,0-.27-36.2-.28-80.85s.1-80.86.25-80.86.27,36.2.28,80.86S417.33,412.42,417.18,412.42Z" style="fill:#e0e0e0"></path><path d="M448.82,304a9.09,9.09,0,0,1-1.36.51l-3.75,1.26c-3.16,1.08-7.5,2.64-12.2,4.57s-9.06,3.62-11.57,5.79a8.46,8.46,0,0,0-2.32,3.07c-.36.85-.43,1.37-.47,1.37s0-.14,0-.38a5.83,5.83,0,0,1,.27-1.06,8.12,8.12,0,0,1,2.27-3.28,20.21,20.21,0,0,1,5-3.11c2-.94,4.24-1.92,6.6-2.89,4.72-1.93,9.09-3.44,12.29-4.43,1.59-.5,2.9-.86,3.8-1.11A7.36,7.36,0,0,1,448.82,304Z" style="fill:#e0e0e0"></path><path d="M459.19,278.51a2.54,2.54,0,0,1-.38.4L457.65,280l-4.34,3.94L438.87,296.8c-5.63,5-10.5,9.8-13.87,13.41-1.69,1.8-3,3.3-3.93,4.34-.43.48-.77.88-1.05,1.2s-.38.41-.39.39.09-.17.31-.46.54-.72,1-1.26c.86-1.09,2.15-2.62,3.81-4.46a183,183,0,0,1,13.81-13.55c5.65-5,10.8-9.5,14.53-12.74l4.45-3.82,1.23-1C459,278.6,459.18,278.49,459.19,278.51Z" style="fill:#e0e0e0"></path><path d="M432.79,301.9c-.15-.07,1-2.79,2.2-6.22s1.75-6.34,1.9-6.32a21.46,21.46,0,0,1-1.4,6.48,42.16,42.16,0,0,1-1.75,4.35A7,7,0,0,1,432.79,301.9Z" style="fill:#e0e0e0"></path><path d="M417.22,323.81a6.42,6.42,0,0,1-.87-1L414.12,320c-1.87-2.42-4.45-5.75-7.34-9.4s-5.56-6.92-7.49-9.29L397,298.45a7,7,0,0,1-.79-1.08,7,7,0,0,1,.94.95c.58.62,1.4,1.55,2.4,2.7,2,2.31,4.72,5.55,7.62,9.21s5.43,7,7.23,9.5c.9,1.23,1.61,2.24,2.09,2.95A8.16,8.16,0,0,1,417.22,323.81Z" style="fill:#e0e0e0"></path><path d="M410.28,314.9a12.66,12.66,0,0,1-2.91-5.44,15.85,15.85,0,0,1-.66-5.48l.23,0c-.1.42-.17.64-.22.63s0-.24,0-.67l.23,0a24.89,24.89,0,0,0,.92,5.33A40.35,40.35,0,0,0,410.28,314.9Z" style="fill:#e0e0e0"></path><path d="M401.32,303.64a8.87,8.87,0,0,0-2-1.18,13.47,13.47,0,0,0-5.63-.45,34.38,34.38,0,0,0-5.67.92,18.55,18.55,0,0,1-2.34.56,7.79,7.79,0,0,1,2.24-.92,25.9,25.9,0,0,1,5.73-1.08,12.19,12.19,0,0,1,5.81.63A3.5,3.5,0,0,1,401.32,303.64Z" style="fill:#e0e0e0"></path><path d="M399.2,300.91c0,.08-1.18-.48-3.11-1.13a31.55,31.55,0,0,0-7.75-1.6,32.22,32.22,0,0,0-7.91.4c-2,.36-3.22.74-3.25.65a2.65,2.65,0,0,1,.83-.35,20.15,20.15,0,0,1,2.34-.66,27.68,27.68,0,0,1,15.87,1.21,19.83,19.83,0,0,1,2.22,1A2.9,2.9,0,0,1,399.2,300.91Z" style="fill:#e0e0e0"></path><path d="M417.15,289.36a63.36,63.36,0,0,1-2.27-7.87,64.79,64.79,0,0,1-1.76-8,66,66,0,0,1,2.27,7.88A64.87,64.87,0,0,1,417.15,289.36Z" style="fill:#e0e0e0"></path><path d="M417.29,289.36a39.25,39.25,0,0,0-2.51-4.71,20.88,20.88,0,0,0-3.7-3.82,3.52,3.52,0,0,1,1.43.74,11.77,11.77,0,0,1,2.7,2.78A10.45,10.45,0,0,1,417.29,289.36Z" style="fill:#e0e0e0"></path><path d="M417.18,393.12c-.05,0-.16-.87-.57-2.41a34,34,0,0,0-2.42-6.26c-2.5-5.11-7.05-11.6-12.83-18.09-2.87-3.27-5.65-6.36-8-9.32a64.57,64.57,0,0,1-5.72-8.25,38.85,38.85,0,0,1-2.89-6.13c-.27-.76-.46-1.34-.57-1.75a2.46,2.46,0,0,1-.15-.63c.05,0,.31.83.91,2.31a43.31,43.31,0,0,0,3,6,67,67,0,0,0,5.78,8.14c2.37,2.93,5.15,6,8,9.28,5.8,6.51,10.34,13.07,12.78,18.27a31.62,31.62,0,0,1,2.28,6.38,16.84,16.84,0,0,1,.32,1.81A2.81,2.81,0,0,1,417.18,393.12Z" style="fill:#e0e0e0"></path><path d="M445.77,360.83a11.71,11.71,0,0,1-1.5.84,32.38,32.38,0,0,0-3.88,2.57,44.78,44.78,0,0,0-5.11,4.66c-1.79,1.89-3.63,4.09-5.52,6.44-3.76,4.73-7.28,8.91-9.39,12.24-1.07,1.66-1.85,3.06-2.36,4a12.46,12.46,0,0,1-.83,1.51,1.73,1.73,0,0,1,.14-.42c.11-.27.26-.68.5-1.18a40.39,40.39,0,0,1,2.23-4.13c2.05-3.42,5.55-7.66,9.3-12.38,1.89-2.35,3.76-4.56,5.58-6.45a42.44,42.44,0,0,1,5.23-4.61,26.92,26.92,0,0,1,4-2.46c.49-.25.9-.4,1.17-.51A1.46,1.46,0,0,1,445.77,360.83Z" style="fill:#e0e0e0"></path><path d="M446.33,371.31a23.49,23.49,0,0,1-3.17.46,41.79,41.79,0,0,0-7.51,1.48,22.47,22.47,0,0,0-6.72,3.53c-1.55,1.19-2.28,2.18-2.36,2.13a2.61,2.61,0,0,1,.47-.73,11.91,11.91,0,0,1,1.65-1.69,20.43,20.43,0,0,1,6.8-3.74,34.15,34.15,0,0,1,7.64-1.35A17.43,17.43,0,0,1,446.33,371.31Z" style="fill:#e0e0e0"></path><path d="M427.5,377.76c-.17-.1,1.26-2.28,2.37-5.21s1.28-5.55,1.47-5.52a5.34,5.34,0,0,1-.06,1.7,18,18,0,0,1-.92,4,18.85,18.85,0,0,1-1.84,3.67A5.28,5.28,0,0,1,427.5,377.76Z" style="fill:#e0e0e0"></path><path d="M455,332.71a2.13,2.13,0,0,1-.51.27l-1.49.67c-.65.28-1.44.64-2.33,1.11s-1.94.94-3,1.59l-1.72,1c-.6.35-1.2.75-1.83,1.15-1.27.77-2.55,1.72-3.91,2.7a67.37,67.37,0,0,0-15.06,15.58c-.93,1.4-1.83,2.7-2.56,4-.37.65-.76,1.25-1.09,1.86l-.92,1.77c-.61,1.1-1.05,2.16-1.49,3.07s-.76,1.71-1,2.37-.46,1.12-.62,1.51a1.93,1.93,0,0,1-.26.52,2.85,2.85,0,0,1,.16-.55c.14-.41.31-.92.53-1.55s.53-1.49.95-2.41.82-2,1.42-3.13l.9-1.79c.31-.62.7-1.23,1.06-1.89.72-1.31,1.62-2.64,2.54-4.05a64.33,64.33,0,0,1,15.18-15.7c1.38-1,2.67-1.91,4-2.68.64-.39,1.24-.79,1.85-1.13l1.76-1c1.1-.63,2.16-1.09,3.07-1.53s1.72-.77,2.38-1l1.53-.59A2.1,2.1,0,0,1,455,332.71Z" style="fill:#e0e0e0"></path><path d="M432.4,347.87a3.68,3.68,0,0,1,1.25-1.85,7.85,7.85,0,0,1,5-1.93,14,14,0,0,1,5.28,1,7.44,7.44,0,0,1,2,1,12.34,12.34,0,0,1-2.12-.62,15.87,15.87,0,0,0-5.13-.85,8.12,8.12,0,0,0-4.79,1.68A15,15,0,0,0,432.4,347.87Z" style="fill:#e0e0e0"></path><path d="M429,351.36a19,19,0,0,0,1.43-4.63,19.21,19.21,0,0,0-.32-4.84,3.19,3.19,0,0,1,.58,1.35,9.58,9.58,0,0,1-.81,6.94C429.46,351,429.07,351.39,429,351.36Z" style="fill:#e0e0e0"></path><path d="M392.18,398.31c.78,13.84,4.95,27.91,11.36,42.13h27.89c6.11-14.08,10-28.13,10.68-42.13Z" style="fill:#e0e0e0"></path><path d="M437.59,420.7c0,.14-9.18.26-20.5.26s-20.51-.12-20.51-.26,9.18-.26,20.51-.26S437.59,420.55,437.59,420.7Z" style="fill:#fafafa"></path><path d="M437,425.71c0,.14-8.61.26-19.22.26s-19.23-.12-19.23-.26,8.61-.26,19.23-.26S437,425.57,437,425.71Z" style="fill:#fafafa"></path><path d="M404,407.39a79.52,79.52,0,0,1,0,12.85,79.52,79.52,0,0,1,0-12.85Z" style="fill:#fafafa"></path><path d="M418.93,407.39a85.3,85.3,0,0,1,0,13.31,85.3,85.3,0,0,1,0-13.31Z" style="fill:#fafafa"></path><path d="M433,407.28a88.66,88.66,0,0,1,0,13.57,88.66,88.66,0,0,1,0-13.57Z" style="fill:#fafafa"></path><path d="M441.23,407.39c0,.15-10.77.27-24.05.27s-24.05-.12-24.05-.27,10.76-.26,24.05-.26S441.23,407.25,441.23,407.39Z" style="fill:#fafafa"></path></g><g id="freepik--Floor--inject-370"><path d="M465.73,446c0,.14-96.84.26-216.28.26s-216.3-.12-216.3-.26,96.82-.26,216.3-.26S465.73,445.85,465.73,446Z" style="fill:#263238"></path></g><g id="freepik--Plant--inject-370"><path d="M52.1,219.63c11.8,6.11,20.84,16.63,27.34,28.21s10.7,24.29,14.85,36.91l3.63,65.07C84.2,326.48,73.18,299,70.21,272.11l9.13-.81c-6.12-.94-11.26-5.37-14.53-10.63s-5-11.33-6.6-17.3L69.35,245A41.29,41.29,0,0,1,52.1,219.63Z" style="fill:#455a64"></path><g style="opacity:0.30000000000000004"><path d="M52.1,219.63c11.8,6.11,20.84,16.63,27.34,28.21s10.7,24.29,14.85,36.91l3.63,65.07C84.2,326.48,73.18,299,70.21,272.11l9.13-.81c-6.12-.94-11.26-5.37-14.53-10.63s-5-11.33-6.6-17.3L69.35,245A41.29,41.29,0,0,1,52.1,219.63Z"></path></g><path d="M100,365.07s29.79-35.65,29.45-69.69h-12s13.07-8.6,12-13.41-1.38-23-1.38-23l-11,2.75s8.25-4.13,9.28-10.66-2.4-36.79-2.4-36.79-13.41,14.1-17.54,28.54-15,31.28-11.77,75.29S100,365.07,100,365.07Z" style="fill:#455a64"></path><path d="M84.85,368.44s-32.27-21.5-39.44-48.94l9.67-2.64s-12.38-4.05-12.61-8.14-3.93-18.82-3.93-18.82l9.45-.2s-7.54-1.51-9.8-6.54-6.11-30.1-6.11-30.1,13.86,8.4,20.34,19.11,18.87,21.88,25.94,57.95S84.85,368.44,84.85,368.44Z" style="fill:#455a64"></path><path d="M115.76,245.33a2.18,2.18,0,0,1-.05.38l-.21,1.11c-.2,1-.48,2.43-.85,4.25s-.83,4.1-1.32,6.73-1.09,5.61-1.67,8.92c-1.23,6.62-2.54,14.52-3.89,23.32s-2.64,18.48-3.84,28.68-2.08,19.94-2.81,28.81-1.22,16.87-1.53,23.59c-.19,3.36-.3,6.4-.41,9.07s-.19,5-.24,6.85-.12,3.31-.15,4.33c0,.48,0,.85-.05,1.13a2.28,2.28,0,0,1,0,.38,2.21,2.21,0,0,1,0-.38c0-.28,0-.65,0-1.13,0-1,0-2.47,0-4.33s.07-4.19.16-6.86.16-5.72.33-9.08c.27-6.73.76-14.73,1.42-23.61s1.61-18.62,2.78-28.83,2.53-19.9,3.87-28.7,2.73-16.69,4-23.3c.6-3.32,1.22-6.3,1.75-8.92s1-4.87,1.41-6.71.72-3.24.94-4.23l.26-1.1A2.18,2.18,0,0,1,115.76,245.33Z" style="fill:#263238"></path><path d="M104.09,386.9s27.26-30.93,35.72-49.62l-6.39-2.73c4.63.76,9.38-1.23,13-4.25s6.23-7,8.81-10.92L146.79,318a31.32,31.32,0,0,0,18.39-14.25c-9.94,1.64-18.92,7.09-26.33,13.91A131.55,131.55,0,0,0,122.9,336.1a62.65,62.65,0,0,0-6.19,10.19C112.13,355.76,104.07,375.55,104.09,386.9Z" style="fill:#455a64"></path><path d="M45,271.06a2,2,0,0,1,.18.29c.11.23.27.51.46.88.42.8,1,1.94,1.75,3.39,1.52,2.94,3.65,7.23,6.2,12.58s5.49,11.75,8.62,18.92,6.41,15.14,9.68,23.56,6.15,16.54,8.69,23.95,4.65,14.13,6.35,19.8,3,10.28,3.88,13.48l1,3.68.25,1a1.42,1.42,0,0,1,.06.33,1,1,0,0,1-.11-.32c-.08-.23-.18-.55-.3-.94-.25-.87-.61-2.1-1.07-3.66-.92-3.18-2.29-7.77-4-13.42s-3.93-12.35-6.46-19.76-5.47-15.48-8.72-23.91-6.55-16.37-9.63-23.56-6-13.6-8.52-19-4.57-9.67-6-12.64l-1.66-3.43c-.18-.38-.32-.67-.42-.9A1.76,1.76,0,0,1,45,271.06Z" style="fill:#263238"></path><path d="M101.77,400.16a2.82,2.82,0,0,1,0-.58c0-.44.1-1,.16-1.66s.18-1.6.34-2.61.31-2.18.56-3.45c.44-2.55,1.11-5.56,2-8.87s2-6.89,3.4-10.59,2.94-7.14,4.45-10.21,3-5.76,4.38-8c.65-1.12,1.3-2.09,1.86-3s1-1.59,1.47-2.18.71-1,1-1.35a2.42,2.42,0,0,1,.37-.46,3.13,3.13,0,0,1-.28.52l-.89,1.4c-.4.61-.87,1.35-1.4,2.23s-1.16,1.86-1.79,3c-1.3,2.22-2.76,4.93-4.26,8s-3,6.5-4.39,10.18-2.51,7.26-3.43,10.54-1.59,6.28-2.08,8.81c-.27,1.26-.45,2.41-.63,3.42s-.32,1.88-.43,2.6-.19,1.21-.26,1.64A2.64,2.64,0,0,1,101.77,400.16Z" style="fill:#263238"></path><rect x="65.8" y="392.88" width="59.66" height="12.17" style="fill:#ACEB27"></rect><polygon points="119.78 405.05 113.33 445.99 77.28 445.99 71.26 405.05 119.78 405.05" style="fill:#ACEB27"></polygon><path d="M69.46,405.05c0-.14,11.29-.26,25.21-.26s25.21.12,25.21.26-11.29.26-25.21.26S69.46,405.2,69.46,405.05Z" style="fill:#263238"></path></g></svg>