<svg id="svg" version="1.1" xmlns="http://www.w3.org/2000/svg" xmlns:xlink="http://www.w3.org/1999/xlink" width="400" height="316.6397415185783" viewBox="0, 0, 400,316.6397415185783"><g id="svgg"><path id="path0" d="M243.547 39.905 C 243.112 40.044,241.453 40.173,239.862 40.190 C 237.967 40.211,236.656 40.385,236.062 40.695 C 235.563 40.955,234.656 41.172,234.046 41.177 C 232.326 41.191,231.256 42.160,231.813 43.201 C 232.185 43.896,232.184 44.098,231.802 44.573 C 231.555 44.880,230.998 45.836,230.564 46.698 C 229.503 48.802,227.371 50.807,224.806 52.114 C 223.643 52.706,222.601 53.337,222.491 53.515 C 222.381 53.694,221.869 53.840,221.355 53.840 C 220.840 53.840,220.171 53.965,219.869 54.118 C 219.567 54.271,218.780 54.627,218.122 54.909 C 217.463 55.192,216.835 55.672,216.726 55.977 C 216.617 56.282,215.624 57.480,214.519 58.639 C 213.136 60.089,212.510 60.996,212.510 61.547 C 212.510 62.077,212.186 62.579,211.551 63.031 C 210.731 63.615,210.618 63.860,210.774 64.715 C 210.950 65.675,210.688 65.976,204.383 72.051 C 200.768 75.534,197.368 78.812,196.829 79.335 C 195.178 80.936,192.010 83.610,191.764 83.610 C 191.637 83.610,191.048 84.036,190.456 84.556 C 189.863 85.076,188.989 85.594,188.514 85.707 C 188.038 85.820,187.435 86.085,187.173 86.297 C 186.912 86.508,186.453 86.768,186.154 86.874 C 185.296 87.178,185.078 88.625,185.786 89.325 C 186.474 90.007,191.324 91.976,196.452 93.657 C 198.403 94.296,200.188 95.005,200.419 95.232 C 200.649 95.459,201.046 95.645,201.302 95.645 C 201.558 95.645,202.653 95.916,203.734 96.246 C 204.816 96.576,206.841 97.080,208.234 97.366 C 209.628 97.652,211.766 98.110,212.985 98.385 C 218.193 99.560,223.242 100.022,234.521 100.356 C 245.792 100.689,245.316 100.596,256.215 104.585 C 258.981 105.598,264.857 106.577,269.992 106.880 C 275.808 107.224,281.447 108.109,285.194 109.264 C 286.762 109.747,288.579 110.237,289.232 110.351 C 289.885 110.466,290.420 110.666,290.420 110.796 C 290.420 110.926,291.239 111.306,292.241 111.639 C 293.242 111.973,294.703 112.517,295.487 112.847 C 297.432 113.668,301.679 115.518,303.365 116.279 C 306.389 117.645,307.987 118.159,308.920 118.068 L 309.897 117.973 309.897 93.112 C 309.897 67.441,309.827 65.847,308.551 62.391 C 308.333 61.803,307.418 59.439,306.833 57.957 C 305.871 55.516,301.342 49.444,299.374 47.955 C 298.717 47.458,297.823 46.723,297.387 46.323 C 296.117 45.156,291.390 42.997,287.886 41.984 C 283.231 40.639,281.717 40.307,278.507 39.928 C 275.163 39.534,244.768 39.514,243.547 39.905 M217.736 145.685 C 217.387 145.835,216.315 145.967,215.352 145.979 C 214.389 145.992,212.394 146.155,210.918 146.341 C 209.442 146.528,204.936 146.707,200.904 146.737 C 194.185 146.789,193.518 146.844,192.907 147.397 C 192.211 148.027,192.012 149.307,192.557 149.644 C 193.317 150.113,192.911 152.494,191.977 153.046 C 191.054 153.591,191.039 153.641,190.173 158.987 C 190.074 159.596,189.916 160.539,189.821 161.082 C 189.152 164.898,192.374 165.394,205.067 163.429 C 207.958 162.982,220.446 162.485,221.061 162.793 C 221.322 162.924,222.320 163.130,223.278 163.251 C 228.119 163.865,234.147 166.187,236.208 168.233 C 240.309 172.304,242.598 176.309,245.225 184.006 C 246.461 187.630,248.268 195.775,249.229 202.059 C 249.376 203.017,249.663 204.420,249.868 205.178 C 250.072 205.936,250.217 207.575,250.190 208.820 C 250.131 211.487,250.676 217.263,251.135 218.844 C 251.312 219.454,251.677 220.751,251.945 221.728 C 252.503 223.755,254.266 225.495,255.763 225.495 C 258.212 225.495,263.856 223.003,266.240 220.869 L 268.567 218.787 268.571 215.253 C 268.576 211.533,267.982 205.511,266.958 198.892 C 266.621 196.714,266.347 194.587,266.348 194.163 C 266.349 193.740,266.215 192.956,266.050 192.422 C 265.885 191.887,265.584 190.166,265.381 188.599 C 265.043 185.985,264.190 180.803,263.452 176.880 C 263.288 176.010,263.023 174.513,262.862 173.555 C 262.512 171.465,262.313 170.714,260.804 165.796 C 260.163 163.705,259.518 161.568,259.370 161.045 C 256.926 152.404,255.713 150.894,250.831 150.411 C 249.525 150.282,246.925 150.026,245.054 149.843 C 243.183 149.660,241.375 149.362,241.037 149.181 C 240.698 149.000,240.142 148.852,239.801 148.852 C 239.460 148.852,237.705 148.266,235.901 147.549 C 230.802 145.525,229.912 145.366,223.817 145.390 C 220.820 145.403,218.084 145.535,217.736 145.685 M66.983 239.899 C 66.809 239.976,64.956 240.185,62.866 240.363 C 60.776 240.542,57.926 240.912,56.532 241.186 C 53.523 241.779,50.643 242.246,47.823 242.600 C 38.572 243.761,38.197 244.587,38.191 263.816 C 38.187 276.850,39.405 288.678,41.213 293.180 C 41.408 293.665,41.692 294.382,41.845 294.774 C 43.167 298.172,44.675 300.256,47.120 302.065 C 48.290 302.931,50.273 304.436,51.526 305.409 C 55.437 308.448,58.838 310.052,62.708 310.681 C 63.666 310.837,65.590 311.185,66.983 311.454 C 70.710 312.174,91.805 312.176,94.913 311.456 C 99.376 310.423,99.312 308.404,94.681 304.110 C 92.229 301.835,89.654 297.338,87.297 291.211 C 85.766 287.234,84.306 284.176,83.769 283.820 C 83.595 283.705,80.434 283.539,76.744 283.452 C 68.057 283.247,67.226 282.680,66.467 276.437 C 66.290 274.983,66.067 273.231,65.971 272.545 C 65.787 271.227,66.652 262.214,67.143 260.333 C 67.302 259.723,67.592 258.440,67.787 257.482 C 67.982 256.524,68.406 254.885,68.728 253.840 C 70.691 247.479,71.972 240.663,71.286 240.238 C 70.898 239.999,67.384 239.721,66.983 239.899 M293.991 263.820 C 292.559 264.508,290.635 265.209,289.715 265.377 C 287.990 265.692,286.670 265.988,283.135 266.851 C 281.229 267.317,280.107 267.517,276.081 268.111 C 275.250 268.234,274.493 268.458,274.400 268.609 C 274.307 268.760,273.633 268.888,272.903 268.894 C 272.173 268.899,271.299 269.113,270.961 269.369 C 270.623 269.624,269.992 269.834,269.558 269.834 C 269.125 269.834,268.333 269.966,267.798 270.129 C 267.263 270.291,265.970 270.561,264.925 270.729 C 263.880 270.898,262.098 271.245,260.966 271.501 C 259.834 271.757,257.696 272.133,256.215 272.336 C 248.179 273.438,246.081 273.769,244.497 274.187 C 242.167 274.800,240.733 275.150,239.588 275.382 C 239.066 275.489,237.213 275.911,235.471 276.322 C 233.729 276.732,231.520 277.159,230.562 277.270 C 228.950 277.458,228.106 277.587,223.278 278.381 C 218.865 279.108,217.833 279.308,215.182 279.949 C 213.625 280.325,211.639 280.782,210.768 280.963 C 209.897 281.144,208.686 281.415,208.076 281.565 C 207.466 281.715,205.899 281.904,204.592 281.984 C 202.269 282.128,193.234 283.761,190.912 284.458 C 189.587 284.855,187.490 286.458,187.490 287.073 C 187.490 287.298,187.048 288.463,186.507 289.663 C 182.062 299.526,181.359 301.025,180.939 301.529 C 180.710 301.804,180.523 302.195,180.523 302.397 C 180.523 302.822,178.258 305.840,176.567 307.667 C 174.269 310.151,174.308 310.339,177.324 311.290 L 179.531 311.987 205.284 311.805 C 219.448 311.704,233.531 311.606,236.580 311.586 C 239.628 311.566,246.540 311.592,251.940 311.643 C 285.513 311.966,294.024 310.004,301.438 300.238 C 302.166 299.279,303.212 297.997,303.763 297.387 C 304.887 296.144,306.695 292.442,307.972 288.769 C 309.178 285.300,308.913 278.777,307.510 277.374 C 307.036 276.900,306.705 276.457,306.774 276.388 C 306.843 276.319,306.684 275.849,306.421 275.344 C 306.158 274.839,305.941 274.291,305.940 274.126 C 305.938 273.730,304.383 271.486,303.484 270.580 C 303.092 270.185,302.771 269.715,302.771 269.535 C 302.771 269.019,299.957 264.719,298.874 263.579 C 297.631 262.270,297.166 262.293,293.991 263.820 " stroke="none" fill="#31ea4b" fill-rule="evenodd"></path><path id="path1" d="M159.282 3.351 C 159.054 3.625,158.315 3.800,157.383 3.800 C 156.544 3.800,155.769 3.943,155.661 4.117 C 155.553 4.291,155.055 4.434,154.553 4.434 C 154.051 4.434,153.552 4.576,153.444 4.751 C 153.337 4.925,152.566 5.067,151.733 5.067 C 150.619 5.067,150.065 5.235,149.644 5.701 C 149.328 6.049,148.843 6.333,148.565 6.333 C 148.013 6.331,145.221 7.195,144.343 7.639 C 144.041 7.792,143.443 7.918,143.016 7.918 C 142.588 7.918,142.150 8.060,142.043 8.234 C 141.935 8.409,141.578 8.551,141.250 8.551 C 140.655 8.551,134.227 14.755,132.069 17.413 C 131.460 18.162,130.427 19.113,129.772 19.526 C 129.060 19.976,128.583 20.525,128.583 20.895 C 128.583 21.236,128.298 21.666,127.949 21.853 C 127.601 22.039,127.316 22.474,127.316 22.818 C 127.316 23.163,127.151 23.764,126.950 24.153 C 126.163 25.674,126.049 25.982,126.049 26.580 C 126.049 26.921,125.925 27.276,125.774 27.369 C 125.623 27.463,125.399 28.680,125.278 30.075 C 125.156 31.469,124.923 32.692,124.761 32.792 C 124.598 32.893,124.466 33.528,124.466 34.204 C 124.466 34.880,124.323 35.522,124.149 35.629 C 123.975 35.737,123.832 36.307,123.832 36.896 C 123.832 37.485,123.690 38.055,123.515 38.163 C 123.341 38.271,123.199 39.197,123.199 40.222 C 123.199 41.246,123.056 42.173,122.882 42.280 C 122.159 42.727,122.787 51.634,123.600 52.446 C 123.727 52.574,123.835 52.904,123.838 53.180 C 123.841 53.456,124.269 54.359,124.789 55.186 C 126.483 57.884,128.231 57.487,134.648 52.946 C 136.451 51.671,139.101 49.984,140.538 49.199 C 141.975 48.414,143.151 47.640,143.151 47.480 C 143.151 47.320,143.345 47.189,143.583 47.189 C 143.820 47.189,145.067 46.649,146.354 45.989 C 147.641 45.329,149.691 44.372,150.911 43.864 C 152.130 43.355,153.555 42.708,154.078 42.425 C 154.600 42.142,155.883 41.657,156.928 41.349 C 157.973 41.040,160.467 40.296,162.470 39.696 C 168.377 37.926,171.125 37.371,173.989 37.371 C 174.990 37.371,175.733 37.248,175.640 37.097 C 175.396 36.703,189.701 36.631,190.728 37.021 C 191.419 37.284,191.592 37.245,191.709 36.802 C 191.833 36.329,191.855 36.326,191.887 36.779 C 191.915 37.170,192.365 37.336,193.745 37.465 C 197.117 37.780,199.710 38.297,202.714 39.253 C 204.357 39.776,206.128 40.339,206.651 40.504 C 208.358 41.042,214.236 43.101,214.885 43.388 C 218.597 45.029,225.398 45.567,227.633 44.397 L 228.979 43.693 228.979 41.732 L 228.979 39.771 226.841 37.682 C 225.665 36.533,224.276 35.372,223.753 35.102 C 222.200 34.300,219.061 32.394,218.211 31.737 C 217.775 31.401,216.778 30.802,215.994 30.405 C 213.728 29.258,211.431 27.495,209.992 25.798 C 209.260 24.935,208.280 23.777,207.814 23.226 C 207.348 22.675,206.611 21.697,206.176 21.051 C 205.740 20.406,204.867 19.289,204.235 18.569 C 203.604 17.849,202.734 16.737,202.302 16.097 C 200.877 13.983,195.884 10.098,191.766 7.898 C 190.372 7.154,188.539 6.070,187.692 5.490 C 186.845 4.909,185.765 4.434,185.293 4.434 C 184.783 4.434,184.127 4.108,183.681 3.632 L 182.928 2.831 171.291 2.866 C 161.659 2.895,159.591 2.979,159.282 3.351 M170.925 40.228 L 169.720 40.888 169.861 44.910 C 169.939 47.121,170.074 49.501,170.160 50.198 C 170.246 50.895,170.426 53.430,170.560 55.831 C 170.694 58.233,170.924 60.272,171.071 60.363 C 171.218 60.454,171.338 61.652,171.338 63.025 C 171.338 64.397,171.481 65.609,171.655 65.717 C 171.829 65.824,171.971 66.593,171.971 67.424 C 171.971 68.256,172.078 69.043,172.209 69.173 C 172.340 69.303,172.628 70.503,172.850 71.839 C 173.538 75.980,173.617 76.327,173.907 76.506 C 174.062 76.602,174.188 77.166,174.188 77.760 C 174.188 82.114,179.262 86.102,182.234 84.086 C 182.876 83.650,183.509 83.294,183.642 83.294 C 185.363 83.294,186.671 79.265,185.903 76.326 C 185.699 75.542,185.457 74.437,185.367 73.869 C 185.277 73.301,185.076 72.758,184.921 72.662 C 184.492 72.397,184.584 71.469,185.151 70.332 L 185.661 69.309 186.576 70.185 C 187.079 70.666,187.490 71.373,187.490 71.754 C 187.490 72.136,187.704 72.626,187.965 72.842 C 188.226 73.059,188.440 73.426,188.440 73.657 C 188.440 74.592,190.487 75.693,192.225 75.693 C 193.998 75.693,197.518 72.885,199.242 70.096 C 199.589 69.534,200.115 68.994,200.412 68.895 C 201.957 68.380,207.126 62.765,207.126 61.601 C 207.126 60.551,207.081 60.491,206.628 60.943 C 206.354 61.217,206.085 61.441,206.030 61.441 C 205.975 61.441,205.929 59.873,205.929 57.957 C 205.929 56.041,206.056 54.473,206.211 54.473 C 206.366 54.473,206.492 53.841,206.492 53.067 C 206.492 52.293,206.620 51.582,206.776 51.485 C 206.932 51.389,207.134 50.775,207.225 50.121 C 207.317 49.466,207.492 48.532,207.615 48.044 C 208.165 45.865,204.482 44.029,196.133 42.320 C 192.960 41.671,192.569 41.647,192.449 42.095 C 192.331 42.535,192.310 42.532,192.277 42.075 C 192.252 41.708,191.841 41.500,190.895 41.377 C 190.154 41.281,188.694 41.050,187.648 40.864 C 181.075 39.698,172.490 39.371,170.925 40.228 M157.975 44.613 C 155.764 45.769,153.698 46.944,153.383 47.224 C 153.068 47.505,152.098 48.133,151.227 48.619 C 150.356 49.105,148.337 50.336,146.739 51.355 C 145.142 52.373,143.713 53.207,143.564 53.207 C 142.939 53.207,137.473 56.880,133.449 60.005 C 132.373 60.841,129.850 64.416,129.850 65.104 C 129.850 65.338,130.431 65.996,131.142 66.567 C 131.853 67.138,132.704 68.197,133.034 68.921 C 133.409 69.745,133.903 70.303,134.356 70.417 C 134.753 70.517,136.432 71.468,138.086 72.531 C 139.739 73.594,141.591 74.689,142.201 74.963 C 150.847 78.861,153.335 80.717,152.388 82.561 C 151.826 83.655,151.418 84.722,151.320 85.352 C 151.257 85.751,150.929 86.026,150.432 86.094 C 149.318 86.246,148.535 87.049,148.535 88.038 C 148.535 88.898,147.702 89.877,146.397 90.550 C 145.668 90.926,145.434 91.969,146.002 92.320 C 146.176 92.428,146.318 92.855,146.318 93.270 C 146.318 93.685,146.176 94.112,146.002 94.220 C 145.827 94.328,145.685 94.806,145.685 95.284 C 145.685 95.761,145.566 96.287,145.422 96.453 C 145.277 96.618,144.898 97.644,144.580 98.733 C 144.261 99.822,143.892 100.713,143.758 100.713 C 143.457 100.713,142.518 102.552,142.518 103.141 C 142.518 103.378,142.393 103.819,142.241 104.121 C 141.124 106.337,140.618 107.468,140.618 107.741 C 140.618 108.056,139.883 109.862,139.324 110.922 C 139.165 111.225,139.034 111.832,139.034 112.272 C 139.034 112.713,138.909 113.320,138.756 113.623 C 138.083 114.955,137.754 116.660,137.561 119.827 C 137.446 121.694,137.232 123.296,137.085 123.387 C 136.938 123.478,136.817 124.656,136.817 126.004 C 136.817 127.543,136.670 128.603,136.421 128.852 C 135.884 129.389,135.871 154.586,136.408 155.233 C 136.752 155.648,136.924 157.289,137.316 163.895 C 137.419 165.637,137.616 167.179,137.753 167.322 C 137.889 167.465,137.932 168.194,137.848 168.943 C 137.755 169.765,137.834 170.392,138.047 170.524 C 138.248 170.647,138.401 171.618,138.401 172.763 C 138.401 173.875,138.543 174.873,138.717 174.980 C 138.892 175.088,139.034 175.872,139.034 176.722 C 139.034 177.572,139.177 178.356,139.351 178.464 C 139.525 178.572,139.667 179.355,139.667 180.206 C 139.667 181.056,139.810 181.840,139.984 181.948 C 140.158 182.055,140.301 182.839,140.301 183.690 C 140.301 184.540,140.425 185.312,140.576 185.406 C 140.728 185.500,140.952 186.860,141.075 188.429 C 141.197 189.998,141.430 191.364,141.591 191.463 C 141.752 191.563,141.884 192.055,141.884 192.557 C 141.884 193.059,142.027 193.558,142.201 193.666 C 142.375 193.774,142.518 194.415,142.518 195.091 C 142.518 195.767,142.660 196.409,142.835 196.516 C 143.009 196.624,143.151 197.492,143.151 198.445 C 143.151 199.694,143.284 200.229,143.626 200.361 C 145.872 201.222,141.995 202.452,135.234 203.024 C 129.892 203.475,128.266 203.703,128.435 203.976 C 128.522 204.117,128.432 204.331,128.236 204.453 C 128.039 204.574,127.779 204.512,127.657 204.315 C 127.315 203.762,123.516 204.225,123.734 204.793 C 123.853 205.103,123.612 205.226,122.882 205.226 C 122.107 205.226,121.908 205.112,122.046 204.751 C 122.182 204.398,122.000 204.276,121.344 204.276 C 120.181 204.276,119.204 203.177,118.950 201.584 C 118.839 200.887,118.620 199.604,118.463 198.733 C 118.307 197.862,118.014 195.938,117.812 194.458 C 117.610 192.977,117.314 191.630,117.154 191.465 C 116.995 191.299,116.865 190.638,116.865 189.994 C 116.865 189.226,116.695 188.760,116.369 188.635 C 116.097 188.530,115.964 188.299,116.075 188.121 C 116.185 187.942,116.422 187.887,116.601 187.998 C 116.808 188.126,116.800 187.962,116.579 187.549 C 116.388 187.191,116.231 186.533,116.231 186.086 C 116.231 185.561,116.056 185.273,115.737 185.273 C 115.466 185.273,115.333 185.128,115.443 184.951 C 115.552 184.774,115.810 184.724,116.016 184.839 C 116.268 184.981,116.261 184.910,115.994 184.623 C 115.776 184.388,115.598 183.629,115.598 182.936 C 115.598 182.243,115.462 181.238,115.296 180.703 C 115.129 180.168,114.690 178.234,114.320 176.405 C 112.712 168.470,112.472 167.442,112.183 167.257 C 112.016 167.150,111.806 166.564,111.716 165.954 C 111.108 161.833,110.106 156.586,109.902 156.453 C 109.768 156.366,109.646 155.583,109.630 154.714 C 109.614 153.845,109.453 153.085,109.274 153.025 C 109.094 152.965,108.947 152.777,108.947 152.607 C 108.947 152.437,109.125 152.399,109.343 152.522 C 109.660 152.701,109.660 152.660,109.343 152.319 C 109.125 152.084,108.947 151.430,108.947 150.866 C 108.947 150.301,108.804 149.751,108.630 149.644 C 108.456 149.536,108.302 149.064,108.289 148.596 C 108.179 144.768,106.481 143.361,103.198 144.377 C 101.918 144.773,100.433 145.230,99.898 145.391 C 99.363 145.553,98.330 145.685,97.602 145.685 C 96.866 145.685,96.279 145.837,96.279 146.027 C 96.279 146.236,95.936 146.293,95.391 146.174 C 94.480 145.974,91.810 146.372,84.006 147.875 C 82.612 148.143,80.482 148.532,76.960 149.161 C 75.401 149.439,69.677 150.334,66.667 150.771 C 64.269 151.119,61.424 151.604,59.382 152.014 C 58.511 152.189,56.516 152.546,54.949 152.807 C 53.381 153.068,51.386 153.424,50.515 153.599 C 47.898 154.124,45.233 154.600,43.389 154.873 C 40.099 155.361,33.179 156.496,29.929 157.081 C 26.840 157.638,25.598 157.965,25.248 158.315 C 25.053 158.510,24.557 158.670,24.146 158.670 C 23.735 158.670,23.465 158.777,23.546 158.907 C 23.626 159.038,22.969 159.176,22.085 159.214 C 21.201 159.252,20.395 159.395,20.294 159.531 C 20.193 159.667,18.860 159.800,17.331 159.827 C 14.127 159.883,13.244 160.288,12.512 162.040 C 11.783 163.783,12.168 169.677,13.069 170.578 C 13.421 170.930,13.348 175.073,12.985 175.297 C 12.415 175.649,12.624 178.535,13.300 179.644 C 13.648 180.214,13.933 181.187,13.934 181.805 C 13.935 182.424,14.088 183.082,14.275 183.269 C 14.462 183.456,14.697 184.986,14.797 186.668 C 14.897 188.351,15.101 189.803,15.249 189.895 C 15.397 189.986,15.519 191.022,15.519 192.196 C 15.519 193.410,15.679 194.492,15.891 194.703 C 16.235 195.047,16.549 196.466,16.992 199.683 C 17.088 200.380,17.295 201.086,17.451 201.251 C 17.608 201.416,17.736 202.165,17.736 202.914 C 17.736 203.663,17.842 204.276,17.973 204.276 C 18.104 204.276,18.222 204.810,18.236 205.463 C 18.250 206.116,18.435 207.577,18.647 208.709 C 18.860 209.842,19.114 211.233,19.211 211.800 C 19.309 212.368,19.516 212.911,19.671 213.007 C 19.826 213.102,19.952 213.856,19.952 214.682 C 19.952 215.508,20.081 216.319,20.238 216.485 C 20.396 216.650,20.600 217.427,20.693 218.211 C 20.785 218.994,21.090 220.918,21.371 222.486 C 21.651 224.054,21.960 225.907,22.058 226.603 C 22.155 227.300,22.362 228.006,22.519 228.171 C 22.675 228.337,22.803 228.950,22.803 229.535 C 22.803 230.767,23.344 233.321,23.774 234.121 C 23.937 234.423,24.070 234.940,24.070 235.270 C 24.070 236.688,26.134 236.881,31.512 235.962 C 34.627 235.430,37.656 235.024,41.013 234.687 C 45.689 234.217,51.747 233.421,58.116 232.439 C 59.161 232.278,60.764 232.057,61.679 231.948 C 62.593 231.839,63.341 231.630,63.341 231.483 C 63.341 231.336,63.519 231.284,63.737 231.367 C 63.955 231.451,65.629 231.295,67.458 231.021 C 69.287 230.748,71.781 230.400,73.001 230.249 C 76.926 229.762,80.227 229.328,82.660 228.979 C 83.967 228.791,86.167 228.497,87.549 228.325 C 88.931 228.152,91.425 227.793,93.091 227.527 C 94.757 227.260,96.729 226.960,97.474 226.860 C 98.218 226.760,98.903 226.554,98.997 226.403 C 99.090 226.252,99.595 226.128,100.119 226.128 C 100.642 226.128,101.364 225.972,101.722 225.780 C 102.119 225.567,102.295 225.557,102.174 225.753 C 102.065 225.930,102.155 226.137,102.373 226.213 C 102.666 226.316,102.625 226.517,102.217 226.978 C 101.912 227.322,101.663 227.716,101.663 227.853 C 101.663 227.991,101.271 228.578,100.792 229.158 C 100.313 229.738,99.493 230.792,98.971 231.500 C 98.448 232.209,97.388 233.581,96.616 234.550 C 95.843 235.519,94.917 236.852,94.557 237.513 C 92.382 241.509,90.411 245.354,90.326 245.764 C 90.221 246.276,90.006 246.835,89.197 248.704 C 88.911 249.363,88.678 250.175,88.678 250.507 C 88.678 250.839,88.535 251.199,88.361 251.306 C 88.187 251.414,88.044 251.984,88.044 252.573 C 88.044 253.162,87.902 253.732,87.728 253.840 C 87.553 253.948,87.411 254.360,87.411 254.756 C 87.411 255.152,87.307 255.581,87.179 255.708 C 86.864 256.023,85.873 261.752,85.848 263.402 C 85.837 264.132,85.685 264.817,85.511 264.925 C 85.337 265.032,85.194 265.531,85.194 266.033 C 85.194 266.535,85.051 267.034,84.877 267.142 C 84.703 267.249,84.561 267.947,84.561 268.691 C 84.561 269.436,84.397 270.861,84.196 271.860 C 83.658 274.538,83.922 274.711,87.917 274.302 C 89.642 274.125,92.051 273.754,93.270 273.477 C 96.122 272.830,98.590 272.559,99.510 272.792 C 100.514 273.046,100.972 274.214,102.573 280.602 C 108.923 305.928,132.412 319.302,157.086 311.642 C 157.522 311.506,158.448 311.247,159.145 311.064 C 163.970 309.802,166.465 308.767,168.639 307.125 C 175.509 301.937,179.045 298.438,180.399 295.487 C 180.519 295.226,180.857 294.727,181.150 294.378 C 181.959 293.416,182.926 291.617,183.182 290.594 C 183.309 290.090,183.688 289.327,184.026 288.898 C 184.364 288.468,184.640 287.869,184.640 287.565 C 184.640 287.262,184.835 286.851,185.075 286.653 C 185.448 286.342,186.085 283.124,186.005 281.951 C 185.990 281.735,186.105 281.637,186.259 281.732 C 186.414 281.828,186.540 281.468,186.540 280.933 C 186.540 280.398,186.674 279.712,186.838 279.410 C 187.001 279.107,187.215 278.477,187.313 278.010 C 187.563 276.818,189.084 275.850,191.216 275.526 C 192.215 275.374,193.888 275.092,194.933 274.900 C 197.344 274.456,198.973 274.187,204.276 273.359 C 206.627 272.992,209.159 272.547,209.902 272.371 C 210.644 272.195,211.669 272.051,212.179 272.051 C 212.689 272.051,213.194 271.908,213.302 271.734 C 213.409 271.560,213.936 271.417,214.471 271.417 C 215.007 271.417,215.960 271.285,216.590 271.123 C 217.220 270.962,219.161 270.592,220.903 270.302 C 222.644 270.011,224.497 269.586,225.020 269.356 C 225.932 268.954,226.590 268.810,230.087 268.247 C 230.958 268.107,232.597 267.830,233.729 267.631 C 234.861 267.433,237.142 267.056,238.797 266.794 C 243.980 265.974,245.245 265.756,246.793 265.415 C 251.464 264.385,254.453 263.802,257.641 263.298 C 260.686 262.816,262.965 262.422,265.637 261.915 C 268.700 261.334,270.290 261.034,273.159 260.498 C 274.727 260.205,276.651 259.825,277.435 259.655 C 279.764 259.148,282.513 258.743,284.954 258.547 C 286.215 258.446,287.192 258.272,287.124 258.160 C 287.057 258.049,287.877 257.917,288.948 257.868 C 293.278 257.670,296.226 256.450,297.179 254.461 C 297.509 253.771,297.903 252.963,298.053 252.666 C 298.283 252.210,298.891 246.387,298.923 244.339 C 298.975 240.908,299.557 239.747,301.226 239.747 C 302.040 239.747,302.428 239.613,302.375 239.351 C 302.329 239.119,302.623 238.955,303.088 238.955 C 303.552 238.955,303.847 239.119,303.800 239.351 C 303.752 239.592,304.067 239.747,304.607 239.747 C 305.490 239.747,307.838 241.735,307.838 242.482 C 307.838 242.665,308.120 243.070,308.464 243.382 C 308.809 243.694,309.006 244.086,308.902 244.253 C 308.799 244.421,308.859 244.865,309.036 245.240 C 309.213 245.615,309.537 246.421,309.755 247.031 C 309.973 247.641,310.771 249.436,311.529 251.021 C 312.286 252.606,312.906 254.119,312.906 254.383 C 312.906 254.647,313.191 255.225,313.539 255.668 C 313.888 256.111,314.173 256.611,314.173 256.779 C 314.173 257.115,316.741 260.989,318.365 263.102 C 318.933 263.842,319.968 264.853,320.665 265.350 C 321.362 265.846,322.787 267.067,323.832 268.062 C 325.535 269.682,327.743 271.190,330.008 272.278 C 331.727 273.103,334.898 274.268,335.428 274.268 C 335.736 274.268,336.076 274.410,336.184 274.584 C 336.291 274.759,336.719 274.901,337.134 274.901 C 337.549 274.901,337.964 275.023,338.056 275.172 C 338.328 275.613,341.656 275.990,344.972 275.956 C 346.671 275.938,348.060 276.050,348.060 276.204 C 348.060 276.542,349.127 276.579,349.453 276.253 C 349.581 276.125,351.136 276.008,352.911 275.991 C 357.315 275.950,360.218 275.501,365.954 273.972 C 372.749 272.161,373.667 271.585,379.889 265.231 C 385.399 259.604,387.015 257.792,387.015 257.240 C 387.015 257.067,387.233 256.746,387.499 256.525 C 388.017 256.095,389.865 253.456,389.865 253.147 C 389.865 253.044,390.268 252.303,390.760 251.500 C 391.253 250.697,391.740 249.755,391.842 249.406 C 391.945 249.058,392.326 247.991,392.689 247.035 C 393.052 246.080,393.349 244.833,393.349 244.264 C 393.349 243.696,393.492 243.230,393.666 243.230 C 393.840 243.230,393.983 242.811,393.983 242.299 C 393.983 241.787,394.125 241.279,394.299 241.172 C 394.491 241.053,394.616 238.799,394.616 235.471 C 394.616 232.143,394.491 229.889,394.299 229.770 C 394.125 229.663,393.983 229.084,393.983 228.485 C 393.983 227.885,393.840 227.395,393.666 227.395 C 393.492 227.395,393.349 226.745,393.349 225.951 C 393.349 225.157,393.223 224.585,393.068 224.681 C 392.914 224.776,392.794 224.678,392.801 224.462 C 392.843 223.307,392.680 222.629,392.403 222.801 C 392.228 222.909,392.167 222.791,392.266 222.535 C 392.363 222.282,392.290 221.981,392.104 221.866 C 391.918 221.751,391.766 221.440,391.766 221.175 C 391.766 220.910,391.289 219.957,390.706 219.056 C 390.123 218.156,389.310 216.849,388.899 216.152 C 388.488 215.455,387.494 214.030,386.691 212.985 C 385.887 211.940,385.097 210.847,384.935 210.557 C 384.334 209.483,380.265 206.176,379.544 206.176 C 379.145 206.176,378.730 206.033,378.622 205.859 C 378.515 205.685,377.259 205.554,375.832 205.567 C 374.406 205.581,373.416 205.664,373.634 205.752 C 374.498 206.100,373.947 206.387,372.367 206.410 C 371.453 206.424,369.778 206.587,368.646 206.773 C 367.514 206.958,365.946 207.201,365.162 207.312 C 364.378 207.423,363.576 207.644,363.378 207.803 C 363.181 207.962,362.611 208.073,362.112 208.051 C 361.612 208.028,360.377 208.238,359.367 208.518 C 358.357 208.797,356.647 209.028,355.566 209.031 C 354.486 209.034,353.402 209.163,353.156 209.318 C 352.660 209.632,351.861 209.431,351.861 208.992 C 351.861 208.837,352.209 208.709,352.634 208.709 C 353.059 208.709,353.495 208.567,353.603 208.393 C 353.710 208.219,354.138 208.076,354.553 208.076 C 354.968 208.076,355.395 207.933,355.503 207.759 C 355.610 207.585,356.023 207.443,356.419 207.443 C 356.815 207.443,357.234 207.348,357.349 207.232 C 357.755 206.827,360.728 205.909,360.728 206.189 C 360.728 206.542,361.694 206.194,362.255 205.639 C 362.486 205.412,362.980 205.226,363.353 205.226 C 363.727 205.226,364.607 205.027,365.310 204.783 C 366.013 204.540,367.229 204.170,368.013 203.961 C 368.797 203.752,369.685 203.452,369.988 203.295 C 370.290 203.137,370.755 203.009,371.021 203.009 C 371.287 203.009,371.753 202.878,372.055 202.719 C 372.357 202.559,373.674 202.123,374.980 201.750 C 376.287 201.377,378.024 200.866,378.840 200.615 C 379.657 200.364,380.531 200.158,380.783 200.158 C 381.965 200.158,383.616 197.615,383.410 196.112 C 383.217 194.703,379.834 190.623,377.204 188.626 C 376.765 188.292,375.835 187.488,375.139 186.838 C 372.760 184.619,368.563 182.116,363.895 180.133 C 361.406 179.074,360.861 178.884,359.480 178.586 C 358.686 178.415,357.466 178.130,356.770 177.952 C 353.635 177.155,350.579 176.903,343.943 176.892 C 336.677 176.880,335.676 176.982,328.203 178.486 C 325.912 178.947,325.416 178.309,325.007 174.374 C 324.462 169.141,324.164 165.248,324.248 164.474 C 324.290 164.095,324.177 163.694,323.999 163.584 C 323.820 163.473,323.674 162.608,323.674 161.660 C 323.674 160.339,323.563 159.937,323.199 159.937 C 322.708 159.937,322.523 158.804,322.983 158.617 C 323.356 158.465,322.945 155.012,322.565 155.107 C 322.391 155.150,322.249 155.008,322.249 154.790 C 322.249 154.572,322.433 154.432,322.658 154.478 C 322.969 154.541,322.988 154.413,322.737 153.945 C 322.556 153.605,322.407 152.897,322.407 152.371 C 322.407 151.846,322.281 151.088,322.126 150.688 C 321.972 150.288,321.681 149.067,321.479 147.975 C 321.026 145.518,320.176 142.835,319.850 142.835 C 319.716 142.835,319.505 142.371,319.381 141.805 C 319.112 140.583,317.550 136.983,316.597 135.392 C 312.587 128.694,306.215 124.497,294.378 120.761 C 291.992 120.007,291.193 119.811,287.490 119.067 C 286.663 118.901,285.238 118.615,284.323 118.431 C 278.796 117.321,275.375 117.305,274.996 118.386 C 274.763 119.053,273.297 120.665,272.924 120.665 C 272.773 120.665,271.810 121.235,270.784 121.932 C 267.801 123.958,266.757 123.571,264.266 119.517 C 261.633 115.233,259.446 113.494,255.424 112.488 C 251.626 111.539,250.587 111.467,241.330 111.507 C 232.070 111.548,229.898 111.437,228.504 110.853 C 228.155 110.707,226.873 110.427,225.653 110.232 C 220.782 109.450,219.481 109.198,215.677 108.295 C 213.500 107.778,211.006 107.196,210.135 107.001 C 206.434 106.171,196.793 103.100,195.333 102.286 C 195.030 102.117,194.624 101.979,194.431 101.979 C 194.237 101.979,193.629 101.788,193.080 101.553 C 192.531 101.319,191.512 100.953,190.816 100.740 C 190.119 100.528,189.192 100.202,188.757 100.016 C 188.007 99.696,187.486 99.489,185.827 98.857 C 173.144 94.024,171.368 92.579,171.344 87.078 C 171.341 86.286,171.206 85.502,171.045 85.337 C 170.884 85.171,170.682 83.967,170.595 82.660 C 170.509 81.354,170.289 79.501,170.107 78.543 C 169.128 73.393,168.942 72.558,168.725 72.341 C 168.594 72.210,168.488 71.700,168.488 71.206 C 168.488 70.713,168.369 70.309,168.223 70.309 C 168.077 70.309,167.935 69.726,167.907 69.014 C 167.879 68.301,167.761 67.564,167.645 67.375 C 167.405 66.988,166.990 65.212,166.590 62.866 C 166.442 61.995,166.092 60.143,165.812 58.749 C 164.500 52.210,164.041 49.339,163.781 46.049 C 163.445 41.793,163.395 41.780,157.975 44.613 M75.534 122.434 C 71.031 122.689,58.613 124.008,56.295 124.478 C 55.467 124.645,54.113 124.918,53.286 125.083 C 49.067 125.927,46.951 126.459,46.190 126.866 C 45.728 127.114,45.122 127.316,44.844 127.316 C 44.566 127.316,44.339 127.458,44.339 127.633 C 44.339 127.807,44.188 127.949,44.003 127.949 C 43.819 127.949,43.749 127.819,43.847 127.659 C 43.955 127.485,43.677 127.479,43.153 127.644 C 42.673 127.796,41.069 128.240,39.588 128.632 C 38.108 129.024,35.827 129.755,34.521 130.256 C 33.215 130.757,31.718 131.281,31.196 131.419 C 29.371 131.903,26.759 133.055,26.387 133.541 C 26.181 133.810,25.866 133.940,25.687 133.829 C 25.508 133.718,24.463 134.167,23.366 134.827 C 22.268 135.486,20.948 136.239,20.431 136.500 C 18.311 137.574,14.959 141.209,13.763 143.732 C 13.130 145.067,12.482 146.407,12.324 146.710 C 11.572 148.142,11.983 152.016,12.995 153.028 C 14.187 154.220,14.566 154.191,22.169 152.337 C 22.779 152.188,24.133 151.905,25.178 151.707 C 26.223 151.509,27.516 151.214,28.051 151.050 C 28.586 150.886,29.361 150.752,29.774 150.752 C 30.186 150.752,31.316 150.614,32.285 150.445 C 33.253 150.276,35.614 149.913,37.530 149.639 C 40.778 149.175,42.822 148.832,45.131 148.364 C 45.653 148.258,46.865 148.046,47.823 147.892 C 48.781 147.739,50.277 147.481,51.148 147.318 C 52.019 147.155,54.228 146.787,56.057 146.499 C 57.886 146.211,60.095 145.839,60.966 145.673 C 61.837 145.507,63.333 145.227,64.291 145.051 C 65.249 144.876,66.746 144.591,67.617 144.418 C 68.488 144.246,70.093 143.961,71.183 143.787 C 72.274 143.612,73.771 143.330,74.509 143.160 C 75.247 142.989,76.325 142.847,76.903 142.842 C 77.482 142.838,78.169 142.621,78.430 142.359 C 78.724 142.066,79.501 141.884,80.466 141.884 C 81.501 141.884,82.029 141.751,82.032 141.489 C 82.035 141.197,82.109 141.206,82.309 141.522 C 82.499 141.822,82.647 141.846,82.798 141.602 C 82.917 141.409,83.647 141.251,84.421 141.251 C 85.194 141.251,85.827 141.130,85.827 140.983 C 85.827 140.836,86.586 140.691,87.514 140.660 C 88.442 140.630,89.688 140.465,90.283 140.295 C 90.878 140.124,91.767 139.984,92.257 139.984 C 92.764 139.984,93.066 139.849,92.956 139.671 C 92.849 139.499,92.957 139.433,93.196 139.524 C 93.434 139.616,94.902 139.461,96.458 139.180 C 98.014 138.900,100.143 138.553,101.188 138.409 C 103.675 138.067,104.703 137.642,105.191 136.753 C 105.711 135.805,105.735 131.454,105.226 130.373 C 105.008 129.911,104.680 129.209,104.498 128.812 C 103.457 126.553,99.688 124.135,96.279 123.537 C 90.880 122.592,81.526 122.094,75.534 122.434 M47.506 126.999 C 47.506 127.173,47.292 127.316,47.031 127.316 C 46.770 127.316,46.556 127.173,46.556 126.999 C 46.556 126.825,46.770 126.683,47.031 126.683 C 47.292 126.683,47.506 126.825,47.506 126.999 M242.175 133.240 C 242.853 133.592,243.841 134.656,244.756 136.018 C 246.856 139.144,247.918 139.456,259.382 140.304 C 266.152 140.804,265.608 140.486,271.597 147.458 C 273.860 150.093,278.224 159.237,278.912 162.787 C 278.997 163.222,279.178 163.864,279.315 164.212 C 280.089 166.181,281.063 170.228,281.716 174.188 C 281.989 175.843,282.338 177.838,282.492 178.622 C 282.646 179.406,282.872 180.689,282.996 181.473 C 283.120 182.257,283.325 183.040,283.452 183.215 C 283.579 183.389,283.774 184.674,283.886 186.071 C 283.997 187.468,284.309 189.749,284.578 191.139 C 285.132 194.002,285.337 196.043,286.452 209.818 C 286.921 215.609,287.216 221.435,287.171 224.022 L 287.094 228.408 285.740 229.168 C 284.995 229.587,284.112 229.929,283.779 229.929 C 283.446 229.929,283.094 230.056,282.999 230.210 C 282.903 230.365,282.360 230.568,281.792 230.660 C 281.225 230.753,279.762 231.064,278.543 231.351 C 277.324 231.639,275.791 231.950,275.137 232.043 C 274.482 232.136,273.868 232.340,273.772 232.496 C 273.676 232.652,272.988 232.779,272.243 232.779 C 271.499 232.779,270.790 232.879,270.668 233.000 C 270.410 233.259,265.401 234.666,263.893 234.903 C 263.325 234.993,262.782 235.193,262.686 235.348 C 262.590 235.503,262.234 235.629,261.893 235.629 C 261.553 235.629,261.027 235.754,260.724 235.907 C 260.037 236.254,258.303 236.774,256.849 237.069 C 256.239 237.193,255.459 237.489,255.116 237.729 C 254.749 237.984,253.675 238.163,252.514 238.163 C 249.938 238.163,249.881 238.041,249.881 232.502 C 249.881 229.886,249.751 227.986,249.565 227.870 C 249.390 227.762,249.248 226.594,249.248 225.275 C 249.248 223.041,249.102 221.405,248.280 214.410 C 247.888 211.077,247.377 206.318,247.140 203.800 C 247.042 202.755,246.835 201.765,246.680 201.599 C 246.524 201.434,246.397 200.835,246.397 200.268 C 246.397 199.702,246.237 198.839,246.041 198.352 C 245.845 197.865,245.571 197.181,245.433 196.833 C 245.294 196.485,245.108 195.202,245.019 193.983 C 244.854 191.692,244.315 189.010,243.826 188.049 C 243.673 187.746,243.547 187.302,243.547 187.062 C 243.547 186.032,241.190 180.606,240.362 179.731 C 240.033 179.382,239.303 178.546,238.739 177.872 C 237.632 176.547,235.252 174.858,232.931 173.748 C 231.561 173.093,225.879 172.810,222.328 173.220 C 217.272 173.804,216.665 173.920,216.284 174.379 C 216.071 174.635,215.330 174.822,214.525 174.822 C 213.761 174.822,212.887 174.950,212.585 175.106 C 211.227 175.806,200.882 177.197,197.150 177.180 C 191.787 177.157,188.757 175.457,188.757 172.472 C 188.757 172.043,188.614 171.604,188.440 171.496 C 188.266 171.389,188.124 170.320,188.124 169.121 C 188.124 167.922,187.981 166.853,187.807 166.746 C 187.311 166.440,187.456 158.839,188.009 156.136 C 188.277 154.830,188.561 153.048,188.641 152.177 C 188.722 151.306,188.907 150.309,189.053 149.960 C 189.370 149.204,189.997 145.834,190.231 143.626 C 190.323 142.755,190.528 141.907,190.686 141.742 C 190.844 141.576,190.974 141.050,190.974 140.573 C 190.974 140.095,191.116 139.617,191.291 139.509 C 191.465 139.401,191.607 138.696,191.607 137.941 C 191.607 137.013,191.761 136.509,192.082 136.386 C 192.344 136.286,192.557 135.930,192.557 135.597 C 192.557 134.767,194.016 133.858,194.968 134.095 C 195.384 134.199,196.116 134.365,196.595 134.466 C 197.074 134.566,197.751 134.778,198.100 134.937 C 202.300 136.852,214.417 137.350,224.228 136.010 C 226.231 135.737,228.692 135.433,229.696 135.335 C 230.701 135.237,231.600 135.031,231.694 134.878 C 231.789 134.725,232.287 134.600,232.802 134.600 C 233.317 134.600,233.985 134.448,234.288 134.262 C 236.983 132.603,240.155 132.192,242.175 133.240 " stroke="none" fill="#040404" fill-rule="evenodd"></path><path id="path2" d="M358.971 206.754 C 358.805 206.898,358.029 207.209,357.245 207.445 C 356.461 207.680,355.677 207.977,355.503 208.103 C 355.329 208.229,354.830 208.404,354.394 208.491 C 353.959 208.578,354.743 208.604,356.136 208.547 C 359.100 208.427,361.045 208.112,361.045 207.751 C 361.045 206.666,359.774 206.055,358.971 206.754 M352.177 209.026 C 352.177 209.200,352.391 209.343,352.652 209.343 C 352.914 209.343,353.127 209.200,353.127 209.026 C 353.127 208.852,352.914 208.709,352.652 208.709 C 352.391 208.709,352.177 208.852,352.177 209.026 " stroke="none" fill="#ccd5c7" fill-rule="evenodd"></path><path id="path3" d="" stroke="none" fill="#4c544c" fill-rule="evenodd"></path><path id="path4" d="M205.859 55.107 C 205.859 55.455,206.002 55.740,206.176 55.740 C 206.350 55.740,206.492 55.455,206.492 55.107 C 206.492 54.759,206.350 54.473,206.176 54.473 C 206.002 54.473,205.859 54.759,205.859 55.107 M46.556 126.999 C 46.556 127.173,46.770 127.316,47.031 127.316 C 47.292 127.316,47.506 127.173,47.506 126.999 C 47.506 126.825,47.292 126.683,47.031 126.683 C 46.770 126.683,46.556 126.825,46.556 126.999 M322.249 154.553 C 322.122 154.757,322.161 155.067,322.335 155.241 C 322.547 155.452,322.729 155.434,322.882 155.186 C 323.008 154.982,322.969 154.672,322.795 154.497 C 322.584 154.286,322.402 154.305,322.249 154.553 M109.580 155.819 C 109.580 156.168,109.723 156.453,109.897 156.453 C 110.071 156.453,110.214 156.168,110.214 155.819 C 110.214 155.471,110.071 155.186,109.897 155.186 C 109.723 155.186,109.580 155.471,109.580 155.819 M322.724 159.303 C 322.724 159.655,322.935 159.937,323.199 159.937 C 323.463 159.937,323.674 159.655,323.674 159.303 C 323.674 158.951,323.463 158.670,323.199 158.670 C 322.935 158.670,322.724 158.951,322.724 159.303 M116.103 188.074 C 115.994 188.251,116.058 188.492,116.247 188.608 C 116.734 188.909,117.048 188.497,116.642 188.091 C 116.414 187.863,116.237 187.858,116.103 188.074 M122.156 204.473 C 121.714 204.915,121.947 205.120,122.891 205.120 C 123.438 205.120,123.801 204.973,123.737 204.777 C 123.603 204.369,122.477 204.153,122.156 204.473 M373.080 206.176 C 373.080 206.350,373.294 206.492,373.555 206.492 C 373.816 206.492,374.030 206.350,374.030 206.176 C 374.030 206.002,373.816 205.859,373.555 205.859 C 373.294 205.859,373.080 206.002,373.080 206.176 M356.061 208.937 C 356.543 209.009,357.255 209.008,357.645 208.932 C 358.034 208.857,357.641 208.798,356.770 208.800 C 355.899 208.802,355.580 208.864,356.061 208.937 M393.349 226.743 C 393.349 227.102,393.492 227.395,393.666 227.395 C 393.840 227.395,393.983 227.190,393.983 226.939 C 393.983 226.688,393.840 226.394,393.666 226.287 C 393.492 226.179,393.349 226.384,393.349 226.743 M302.295 239.115 C 302.043 239.522,302.933 239.874,303.583 239.624 C 304.218 239.381,303.868 238.797,303.088 238.797 C 302.760 238.797,302.403 238.940,302.295 239.115 M346.160 276.168 C 346.160 276.342,346.587 276.485,347.110 276.485 C 347.633 276.485,348.060 276.342,348.060 276.168 C 348.060 275.994,347.633 275.851,347.110 275.851 C 346.587 275.851,346.160 275.994,346.160 276.168 M349.485 276.168 C 349.374 276.347,349.640 276.485,350.100 276.485 C 350.546 276.485,350.911 276.342,350.911 276.168 C 350.911 275.994,350.634 275.851,350.296 275.851 C 349.958 275.851,349.593 275.994,349.485 276.168 " stroke="none" fill="#444044" fill-rule="evenodd"></path></g></svg>